# AST/ASF file generated using VICON BodyLanguage
# -----------------------------------------------
:version 1.10
:name VICON
:units
  mass 1.0
  length 0.45
  angle deg
:documentation
   .ast/.asf automatically generated from VICON data using
   VICON BodyBuilder and BodyLanguage model FoxedUp or BRILLIANT.MOD
:root
   order TX TY TZ RX RY RZ
   axis XYZ
   position 0 0 0  
   orientation 0 0 0 
:bonedata
  begin
     id 1 
     name lhipjoint
     direction 0.623415 -0.642378 0.445763 
     length 2.49859 
     axis 0 0 0  XYZ
  end
  begin
     id 2 
     name lfemur
     direction 0.34202 -0.939693 0  
     length 6.69689  
     axis 0 0 20  XYZ
    dof rx ry rz
    limits (-160.0 20.0)
           (-70.0 70.0)
           (-60.0 70.0)
  end
  begin
     id 3 
     name ltibia
     direction 0.34202 -0.939693 0   
     length 7.37574   
     axis 0 0 20   XYZ
    dof rx
    limits (-10.0 170.0)
  end
  begin
     id 4 
     name lfoot
     direction 0.084323 -0.231675 0.969132   
     length 2.09111   
     axis -90 7.62852e-016 20   XYZ
    dof rx rz
    limits (-45.0 90.0)
           (-70.0 20.0)
  end
  begin
     id 5 
     name ltoes
     direction 1.5357e-011 -4.21957e-011 1   
     length 1.04989   
     axis -90 7.62852e-016 20   XYZ
    dof rx
    limits (-90.0 20.0)
  end
  begin
     id 6 
     name rhipjoint
     direction -0.605402 -0.653903 0.45376   
     length 2.45455  
     axis 0 0 0  XYZ 
  end
  begin
     id 7 
     name rfemur
     direction -0.34202 -0.939693 0   
     length 6.64523   
     axis 0 0 -20   XYZ
    dof rx ry rz
    limits (-160.0 20.0)
           (-70.0 70.0)
           (-70.0 60.0)
  end
  begin
     id 8 
     name rtibia
     direction -0.34202 -0.939693 0   
     length 7.3339   
     axis 0 0 -20   XYZ
    dof rx
    limits (-10.0 170.0)
 end
 begin
     id 9 
     name rfoot
     direction -0.120854 -0.332043 0.93549   
     length 2.23135  
     axis -90 -7.62852e-016 -20   XYZ
    dof rx rz
    limits (-45.0 90.0)
           (-20.0 70.0)
  end
  begin
     id 10 
     name rtoes
     direction -1.53563e-011 -4.21914e-011 1   
     length 1.10614   
     axis -90 -7.62852e-016 -20   XYZ
    dof rx
    limits (-90.0 20.0)
  end
  begin
     id 11 
     name lowerback
     direction 0.0319682 0.998615 -0.0417941   
     length 2.02718   
     axis 0 0 0   XYZ
    dof rx ry rz
    limits (-20.0 45.0)
           (-30.0 30.0)
           (-30.0 30.0)
  end
  begin
     id 12 
     name upperback
     direction 7.63181e-005 0.995808 0.0914691   
     length 1.97539   
     axis 0 0 0   XYZ
    dof rx ry rz
    limits (-20.0 45.0)
           (-30.0 30.0)
           (-30.0 30.0)
  end
  begin
     id 13 
     name thorax
     direction -0.016423 0.993627 0.111514   
     length 2.00349   
     axis 0 0 0   XYZ
    dof rx ry rz
    limits (-20.0 45.0)
           (-30.0 30.0)
           (-30.0 30.0)
  end
  begin
     id 14 
     name lowerneck
     direction -0.174763 0.981668 -0.0760716   
     length 1.71436   
     axis 0 0 0   XYZ
    dof rx ry rz
    limits (-20.0 45.0)
           (-30.0 30.0)
           (-30.0 30.0)
  end
  begin
     id 15 
     name upperneck
     direction 0.345458 0.934587 -0.0848868   
     length 1.72805   
     axis 0 0 0   XYZ
    dof rx ry rz
    limits (-20.0 45.0)
           (-30.0 30.0)
           (-30.0 30.0)
  end
  begin
     id 16
     name head
     direction 0.13001 0.989848 -0.0574291  
     length 1.767  
     axis 0 0 0   XYZ
    dof rx ry rz
    limits (-20.0 45.0)
           (-30.0 30.0)
           (-30.0 30.0)
  end
  begin
     id 17 
     name lclavicle
     direction 0.952951 0.290122 0.0878234  
     length 3.54654  
     axis 0 0 0   XYZ
    dof ry rz
    limits (-20.0 10.0)
           (0.0 20.0)
  end
  begin
     id 18 
     name lhumerus
     direction 1 -4.48957e-011 -4.56525e-028   
     length 5.19807   
     axis 180 -30 -90   XYZ
    dof rx ry rz
    limits (-60.0 90.0)
           (-90.0 90.0)
           (-90.0 90.0)
  end
  begin
     id 19
     name lradius
     direction 1 -4.48979e-011 -2.0317e-027   
     length 3.0937   
     axis 180 -30 -90   XYZ
    dof rx
    limits (-10.0 170.0)
  end
  begin
     id 20
     name lwrist
     direction 1 -4.48953e-011 -3.05809e-027   
     length 1.54685   
     axis 8.48514e-016 90 90   XYZ
    dof ry
    limits (-180.0 0.0)
 end
  begin
     id 21 
     name lhand
     direction 1 -4.48952e-011 -6.11639e-027   
     length 0.672632   
     axis 3.9013e-015 90 90   XYZ
    dof rx rz
    limits (-90.0 90.0)
           (-45.0 45.0)
  end
  begin
     id 22 
     name lfingers
     direction 1 -4.48925e-011 -1.22426e-026   
     length 0.542293   
     axis 7.80276e-015 90 90   XYZ
    dof rx
    limits (0.0 90.0)
  end
  begin
     id 23
     name lthumb
     direction 0.707107 -6.3486e-011 0.707107   
     length 0.778628   
     axis -90 45 5.37419e-014   XYZ
    dof rx rz
    limits (-45.0 45.0)
           (-45.0 45.0)
  end
  begin
     id 24 
     name rclavicle
     direction -0.960732 0.273675 -0.0457849   
     length 3.52079  
     axis 0 0 0   XYZ 
    dof ry rz
    limits (-10.0 20.0)
           (-20.0 0.0)
  end
  begin
     id 25 
     name rhumerus
     direction -1 -4.48976e-011 -1.63613e-027  
     length 5.45222   
     axis 180 30 90   XYZ
    dof rx ry rz
    limits (-90.0 60.0)
           (-90.0 90.0)
           (-90.0 90.0)
  end
  begin
     id 26 
     name rradius
     direction -1 -4.48957e-011 -7.00033e-028   
     length 3.01284   
     axis 180 30 90   XYZ
    dof rx
    limits (-10.0 170.0)
  end
  begin
     id 27 
     name rwrist
     direction -1 -4.48983e-011 -3.05543e-027   
     length 1.50642   
     axis 8.48514e-016 -90 -90   XYZ
    dof ry
    limits (-180.0 0.0)
  end
  begin
     id 28
     name rhand
     direction -1 -4.48984e-011 -6.11072e-027   
     length 0.622296   
     axis 3.9013e-015 -90 -90   XYZ
    dof rx rz
    limits (-90.0 90.0)
           (-45.0 45.0)
  end
  begin
     id 29
     name rfingers
     direction -1 -4.48865e-011 -1.22637e-026   
     length 0.501711   
     axis 7.80276e-015 -90 -90   XYZ
    dof rx
    limits (0.0 90.0)
  end
  begin
     id 30
     name rthumb
     direction -0.707107 -6.34932e-011 0.707107   
     length 0.72036   
     axis -90 -45 -5.37419e-014   XYZ
    dof rx rz
    limits (-45.0 45.0)
           (-45.0 45.0)
  end
:hierarchy
  begin
    root lhipjoint rhipjoint lowerback
    lhipjoint lfemur
    lfemur ltibia
    ltibia lfoot
    lfoot ltoes
    rhipjoint rfemur
    rfemur rtibia
    rtibia rfoot
    rfoot rtoes
    lowerback upperback
    upperback thorax
    thorax lowerneck lclavicle rclavicle
    lowerneck upperneck
    upperneck head
    lclavicle lhumerus
    lhumerus lradius
    lradius lwrist
    lwrist lhand lthumb
    lhand lfingers
    rclavicle rhumerus
    rhumerus rradius
    rradius rwrist
    rwrist rhand rthumb
    rhand rfingers
  end

#!OML:ASF H:\Not Pregnant\Project 1\Capture day 1\Session 1\non-pregnant.ASF
:FULLY-SPECIFIED
:DEGREES
52
root -5.53112 16.3042 35.0472 144.841 -83.7376 -134.473
lowerback -16.4203 1.72686 5.12526
upperback -1.72139 1.28453 -0.441689
thorax 7.49598 0.741007 -3.09853
lowerneck 33.4762 -0.0782676 -34.4877
upperneck -5.57668 -12.287 43.4123
head -1.8899 -10.1356 26.7347
rclavicle -5.93248e-016 4.77083e-015
rhumerus 6.15835 44.1027 -100.792
rradius 135.65
rwrist -23.8846
rhand -29.9954 -15.4279
rfingers 7.12502
rthumb -3.31304 -45.3819
lclavicle -5.93248e-016 4.77083e-015
lhumerus -0.0147296 -43.9447 94.5187
lradius 139.629
lwrist 56.7655
lhand -26.8757 -29.5853
lfingers 7.12502
lthumb -0.300049 0.394238
rfemur 0 0 0
rtibia 0
rfoot 0 0
rtoes 0
lfemur -14.339 4.39759 -16.384
ltibia 16.0371
lfoot -13.2724 -5.39338
ltoes -16.6814
53
root -5.53138 16.3044 35.046 144.909 -83.7309 -134.539
lowerback -16.4289 1.73849 5.1026
upperback -1.73527 1.30308 -0.439991
thorax 7.48687 0.748505 -3.07958
lowerneck 33.4948 -0.0782267 -34.497
upperneck -5.67902 -12.268 43.427
head -1.92735 -10.1246 26.7615
rclavicle 1.16972e-014 -7.15625e-015
rhumerus 6.19562 44.1095 -100.775
rradius 135.649
rwrist -23.8921
rhand -30.0237 -15.3964
rfingers 7.12502
rthumb -3.34035 -45.35
lclavicle 1.16972e-014 -7.15625e-015
lhumerus 0.0473203 -43.949 94.535
lradius 139.599
lwrist 56.7894
lhand -26.8756 -29.6847
lfingers 7.12502
lthumb -0.29992 0.294874
rfemur 0 0 0
rtibia 0
rfoot 0 0
rtoes 0
lfemur -14.3363 4.38478 -16.3776
ltibia 16.0341
lfoot -13.2697 -5.37528
ltoes -16.6379
54
root -5.53166 16.3046 35.0449 144.973 -83.7235 -134.599
lowerback -16.4413 1.74918 5.07704
upperback -1.74911 1.32028 -0.433809
thorax 7.47957 0.755208 -3.05443
lowerneck 33.5196 -0.0790122 -34.5081
upperneck -5.78804 -12.2517 43.4409
head -1.96605 -10.115 26.7887
rclavicle -7.83336e-015 -1.19271e-015
rhumerus 6.22812 44.1179 -100.757
rradius 135.648
rwrist -23.9119
rhand -30.0389 -15.3815
rfingers 7.12502
rthumb -3.35506 -45.3348
lclavicle -7.83336e-015 -1.19271e-015
lhumerus 0.10255 -43.9467 94.5606
lradius 139.567
lwrist 56.8083
lhand -26.8734 -29.788
lfingers 7.12502
lthumb -0.297767 0.191562
rfemur 0 0 0
rtibia 0
rfoot 0 0
rtoes 0
lfemur -14.3343 4.37048 -16.3699
ltibia 16.0306
lfoot -13.2651 -5.35415
ltoes -16.5876
55
root -5.53193 16.3049 35.0437 144.997 -83.7128 -134.62
lowerback -16.4565 1.76002 5.05041
upperback -1.76128 1.33715 -0.421094
thorax 7.47542 0.761718 -3.02166
lowerneck 33.5492 -0.0835455 -34.5186
upperneck -5.90211 -12.2409 43.4521
head -2.00424 -10.1081 26.813
rclavicle 7.45443e-016 -1.19271e-015
rhumerus 6.25857 44.1207 -100.738
rradius 135.65
rwrist -23.9417
rhand -30.0269 -15.378
rfingers 7.12502
rthumb -3.34346 -45.3315
lclavicle 7.45443e-016 -1.19271e-015
lhumerus 0.152065 -43.9399 94.5998
lradius 139.535
lwrist 56.8165
lhand -26.8684 -29.8857
lfingers 7.12502
lthumb -0.292966 0.0938687
rfemur 0 0 0
rtibia 0
rfoot 0 0
rtoes 0
lfemur -14.3328 4.35528 -16.3563
ltibia 16.0297
lfoot -13.2604 -5.32998
ltoes -16.5444
56
root -5.53219 16.3049 35.0424 144.97 -83.6992 -134.59
lowerback -16.4744 1.76906 5.02592
upperback -1.77216 1.3506 -0.402783
thorax 7.47371 0.766625 -2.98483
lowerneck 33.5772 -0.0862135 -34.5363
upperneck -6.01266 -12.2311 43.4626
head -2.04013 -10.1016 26.8382
rclavicle 1.57413e-014 -1.82882e-014
rhumerus 6.28653 44.1202 -100.722
rradius 135.655
rwrist -23.9775
rhand -29.99 -15.3896
rfingers 7.12502
rthumb -3.30784 -45.3437
lclavicle 1.57413e-014 -1.82882e-014
lhumerus 0.19522 -43.9181 94.647
lradius 139.502
lwrist 56.803
lhand -26.8522 -29.9732
lfingers 7.12502
lthumb -0.277357 0.00640444
rfemur 0 0 0
rtibia 0
rfoot 0 0
rtoes 0
lfemur -14.3336 4.34943 -16.3373
ltibia 16.0342
lfoot -13.263 -5.30994
ltoes -16.5492
57
root -5.53244 16.3048 35.0411 144.908 -83.6831 -134.529
lowerback -16.4916 1.77847 5.00624
upperback -1.78082 1.3636 -0.382906
thorax 7.47405 0.771563 -2.94913
lowerneck 33.6009 -0.0884376 -34.5574
upperneck -6.11563 -12.2229 43.4725
head -2.07225 -10.0957 26.8628
rclavicle -9.70318e-015 7.95139e-016
rhumerus 6.3146 44.1173 -100.707
rradius 135.661
rwrist -24.0063
rhand -29.9607 -15.3878
rfingers 7.12502
rthumb -3.27948 -45.3423
lclavicle -9.70318e-015 7.95139e-016
lhumerus 0.235114 -43.8875 94.695
lradius 139.472
lwrist 56.775
lhand -26.834 -30.0445
lfingers 7.12502
lthumb -0.259725 -0.0648863
rfemur 0 0 0
rtibia 0
rfoot 0 0
rtoes 0
lfemur -14.3349 4.34845 -16.314
ltibia 16.0465
lfoot -13.2722 -5.29376
ltoes -16.5738
58
root -5.53262 16.3046 35.0398 144.811 -83.6672 -134.434
lowerback -16.5081 1.78267 4.99447
upperback -1.78755 1.3682 -0.36122
thorax 7.47549 0.772731 -2.91791
lowerneck 33.6039 -0.0861108 -34.5965
upperneck -6.19738 -12.215 43.4817
head -2.09388 -10.0884 26.8879
rclavicle -5.79582e-015 -1.51076e-014
rhumerus 6.34174 44.1212 -100.703
rradius 135.667
rwrist -24.0262
rhand -29.9272 -15.38
rfingers 7.12502
rthumb -3.24717 -45.335
lclavicle -5.79582e-015 -1.51076e-014
lhumerus 0.273318 -43.8343 94.7374
lradius 139.444
lwrist 56.7278
lhand -26.802 -30.0845
lfingers 7.12502
lthumb -0.228891 -0.104912
rfemur 0 0 0
rtibia 0
rfoot 0 0
rtoes 0
lfemur -14.3391 4.35188 -16.2892
ltibia 16.0653
lfoot -13.2878 -5.28061
ltoes -16.6322
59
root -5.53282 16.3043 35.0385 144.697 -83.6532 -134.323
lowerback -16.5259 1.78443 4.98534
upperback -1.79216 1.36902 -0.339421
thorax 7.47964 0.772278 -2.88891
lowerneck 33.5962 -0.0808325 -34.6423
upperneck -6.26495 -12.2057 43.4894
head -2.11029 -10.0797 26.9117
rclavicle 6.24929e-015 1.90833e-014
rhumerus 6.36939 44.1277 -100.703
rradius 135.67
rwrist -24.0142
rhand -29.8886 -15.3792
rfingers 7.12502
rthumb -3.20984 -45.3348
lclavicle 6.24929e-015 1.90833e-014
lhumerus 0.310976 -43.7671 94.7742
lradius 139.414
lwrist 56.6639
lhand -26.7547 -30.0966
lfingers 7.12502
lthumb -0.183174 -0.116981
rfemur 0 0 0
rtibia 0
rfoot 0 0
rtoes 0
lfemur -14.3443 4.36007 -16.2653
ltibia 16.0876
lfoot -13.3078 -5.27379
ltoes -16.6988
60
root -5.53295 16.3039 35.0373 144.591 -83.6424 -134.222
lowerback -16.5424 1.78476 4.97925
upperback -1.79671 1.36785 -0.321749
thorax 7.4831 0.771023 -2.86654
lowerneck 33.5763 -0.0734117 -34.6922
upperneck -6.31446 -12.1958 43.4964
head -2.12005 -10.0701 26.9337
rclavicle -7.63457e-015 -1.78906e-014
rhumerus 6.39431 44.1348 -100.718
rradius 135.663
rwrist -23.9659
rhand -29.8365 -15.3852
rfingers 7.12502
rthumb -3.15958 -45.3416
lclavicle -7.63457e-015 -1.78906e-014
lhumerus 0.34535 -43.6955 94.8022
lradius 139.386
lwrist 56.6013
lhand -26.7018 -30.0979
lfingers 7.12502
lthumb -0.132032 -0.118166
rfemur 0 0 0
rtibia 0
rfoot 0 0
rtoes 0
lfemur -14.3497 4.36976 -16.2449
ltibia 16.1096
lfoot -13.3275 -5.27218
ltoes -16.7486
61
root -5.53307 16.3035 35.036 144.507 -83.6359 -134.141
lowerback -16.5586 1.78492 4.97214
upperback -1.80152 1.367 -0.308129
thorax 7.48625 0.769958 -2.84789
lowerneck 33.553 -0.0656873 -34.7389
upperneck -6.35165 -12.1861 43.5009
head -2.12643 -10.0606 26.9513
rclavicle -1.29955e-014 3.97569e-016
rhumerus 6.41577 44.1414 -100.741
rradius 135.649
rwrist -23.8879
rhand -29.7927 -15.3957
rfingers 7.12502
rthumb -3.11728 -45.3527
lclavicle -1.29955e-014 3.97569e-016
lhumerus 0.374065 -43.6275 94.8275
lradius 139.358
lwrist 56.5399
lhand -26.6458 -30.0955
lfingers 7.12502
lthumb -0.0779445 -0.115746
rfemur 0 0 0
rtibia 0
rfoot 0 0
rtoes 0
lfemur -14.3531 4.37474 -16.2286
ltibia 16.1278
lfoot -13.3408 -5.27523
ltoes -16.7468
62
root -5.53313 16.3033 35.0348 144.454 -83.6346 -134.093
lowerback -16.5743 1.78378 4.96111
upperback -1.80733 1.36542 -0.297288
thorax 7.48798 0.768407 -2.83019
lowerneck 33.5264 -0.0561651 -34.7829
upperneck -6.37656 -12.1743 43.5021
head -2.13058 -10.0498 26.9644
rclavicle 1.94312e-014 -6.36111e-015
rhumerus 6.43101 44.1492 -100.771
rradius 135.633
rwrist -23.8047
rhand -29.7656 -15.415
rfingers 7.12502
rthumb -3.09107 -45.3724
lclavicle 1.94312e-014 -6.36111e-015
lhumerus 0.394037 -43.5643 94.856
lradius 139.331
lwrist 56.4828
lhand -26.5927 -30.1052
lfingers 7.12502
lthumb -0.0267214 -0.125476
rfemur 0 0 0
rtibia 0
rfoot 0 0
rtoes 0
lfemur -14.3539 4.37548 -16.2188
ltibia 16.14
lfoot -13.3498 -5.27593
ltoes -16.7484
63
root -5.53315 16.3032 35.0336 144.424 -83.637 -134.069
lowerback -16.5902 1.78814 4.94456
upperback -1.81341 1.37246 -0.290464
thorax 7.49019 0.770953 -2.81168
lowerneck 33.5126 -0.0518898 -34.8083
upperneck -6.40171 -12.1661 43.5009
head -2.13678 -10.0421 26.9707
rclavicle 1.49585e-014 -1.07344e-014
rhumerus 6.44054 44.1419 -100.798
rradius 135.615
rwrist -23.7182
rhand -29.7502 -15.4267
rfingers 7.12502
rthumb -3.0762 -45.3842
lclavicle 1.49585e-014 -1.07344e-014
lhumerus 0.406239 -43.5239 94.8955
lradius 139.304
lwrist 56.4402
lhand -26.5457 -30.125
lfingers 7.12502
lthumb 0.0187356 -0.145245
rfemur 0 0 0
rtibia 0
rfoot 0 0
rtoes 0
lfemur -14.3501 4.36678 -16.2123
ltibia 16.1463
lfoot -13.3512 -5.27385
ltoes -16.7163
64
root -5.53311 16.303 35.0324 144.409 -83.6424 -134.06
lowerback -16.6068 1.79392 4.92289
upperback -1.81971 1.38236 -0.284404
thorax 7.49273 0.77474 -2.7904
lowerneck 33.5065 -0.0486353 -34.8243
upperneck -6.42658 -12.1575 43.4968
head -2.14536 -10.0346 26.9727
rclavicle -1.20637e-014 -3.26007e-014
rhumerus 6.44508 44.1271 -100.823
rradius 135.598
rwrist -23.643
rhand -29.7365 -15.4319
rfingers 7.12502
rthumb -3.06302 -45.3897
lclavicle -1.20637e-014 -3.26007e-014
lhumerus 0.411075 -43.485 94.9446
lradius 139.277
lwrist 56.4028
lhand -26.4851 -30.1383
lfingers 7.12502
lthumb 0.0772074 -0.158578
rfemur 0 0 0
rtibia 0
rfoot 0 0
rtoes 0
lfemur -14.3441 4.35287 -16.2089
ltibia 16.1484
lfoot -13.35 -5.266
ltoes -16.707
